Simulation
nRows=42
nColumns=15
endheader
time  TH_x TH_y TH_z SC_y  SC_z  SC_x  AC_y  AC_z  AC_x  GH_y  GH_z  GH_yy  EL_x  PS_y
5.382082397003745  0.000000  0.000000  0.000000  -31.634823238961808  8.863176405705326  13.71397718847922  53.50430823165095  18.896332885209905  8.170808007028006  2.2099202429936797  66.06246354075618  -1.9778265015961871  13.450074143825454  120.000000
5.422247191011236  0.000000  0.000000  0.000000  -31.638781353406372  8.754742969090975  13.809486616645904  53.59129412607876  18.692704563677623  7.815884603118518  2.3734367694603478  66.23315175407038  -2.295919998318274  13.472250878144882  120.000000
5.4624119850187265  0.000000  0.000000  0.000000  -31.538409705805602  8.629273882688521  13.715503680608112  53.68100342900029  18.46933211841425  7.4114993104461355  2.568432682877542  66.19598521129753  -2.5232531279390735  13.413983125411894  120.000000
5.502576779026217  0.000000  0.000000  0.000000  -31.337529420356518  8.485506777477156  13.422832133319195  53.77880456198635  18.21961815488455  6.9632146399312  2.7946139097223632  65.93504610059027  -2.6656603318645873  13.29105229311387  120.000000
5.542741573033708  0.000000  0.000000  0.000000  -31.042928057017168  8.320312774538202  12.926022952972769  53.88886593725142  17.93630496197836  6.481071605466455  3.0502752115842093  65.43595330389832  -2.7313138456836734  13.125498032593184  120.000000
5.582906367041199  0.000000  0.000000  0.000000  -30.66446581874849  8.12869107279495  12.224274483685425  54.01249250009077  17.612629653238322  5.979562914786128  3.33329201448232  64.68767757555544  -2.7281973662698538  12.941640705778763  120.000000
5.623071161048689  0.000000  0.000000  0.000000  -30.21524604898022  7.904417508741197  11.322312089563978  54.14706224560036  17.243605913154568  5.47697936928543  3.6417219974799124  63.684355396619345  -2.661599858240833  12.761920743261488  120.000000
5.66323595505618  0.000000  0.000000  0.000000  -29.71137164733759  7.641176521154927  10.231075465483096  54.286003102544576  16.827298288031134  4.994142406342755  3.9739550120027984  62.4263799983585  -2.53214515991187  12.603426555487303  120.000000
5.70340074906367  0.000000  0.000000  0.000000  -29.171130452576474  7.333932088766679  8.967881965423048  54.41981074714078  16.36555489365322  4.552673139868369  4.32862644080988  60.920467546729505  -2.3350376253504006  12.476039764671814  120.000000
5.743565543071161  0.000000  0.000000  0.000000  -28.613696036362903  6.98024916873883  7.556069902119412  54.537775859095106  15.864182944909466  4.173081089964526  4.704252500617627  59.17859009719233  -2.0604297271337444  12.382340291302393  120.000000
5.7837303370786515  0.000000  0.000000  0.000000  -28.05746175959593  6.58130757042902  6.024163027042878  54.6298959187878  15.332575841347962  3.8729111127008364  5.098753165460084  57.21635126918585  -1.6948605215321852  12.31891263156277  120.000000
5.823895131086142  0.000000  0.000000  0.000000  -27.51819464482262  6.142556617394814  4.40479196462322  54.688827522477425  14.782848814675722  3.665346019968672  5.509249008132579  55.0511680733505  -1.2230827121846215  12.278418552716484  120.000000
5.864059925093633  0.000000  0.000000  0.000000  -27.007366108798124  5.673865754115206  2.733126164994345  54.71144678507153  14.228867265340343  3.5581713839247673  5.932110056012441  52.70074951242068  -0.6302576819444623  12.251807676383072  120.000000
5.904224719101124  0.000000  0.000000  0.000000  -26.53141267246061  5.188944494703064  1.045281384519413  54.699028421761355  13.685213670352917  3.5534522808939544  6.362543496141228  50.18191767289615  0.0966042526667121  12.23017228000636  120.000000
5.944389513108614  0.000000  0.000000  0.000000  -26.092237858448275  4.704245740480651  -0.623124365716208  54.65650914646314  13.166135359717622  3.647635156754766  6.793921388442711  47.51022672574653  0.9678152345232008  12.206022073132146  120.000000
5.984554307116105  0.000000  0.000000  0.000000  -25.688254095468878  4.23783208994316  -2.237925518006194  54.59131113816037  12.684807284708397  3.8322996155017592  7.217581969534735  44.70052064868978  1.9907770503921982  12.174185594746328  120.000000
6.024719101123596  0.000000  0.000000  0.000000  -25.315296134757816  3.80823284065068  -3.7671392217925956  54.51235841984534  12.253312519290501  4.095185212292211  7.622845962056307  41.768484608247995  3.169993746235379  12.132206234438078  120.000000
6.064883895131086  0.000000  0.000000  0.000000  -24.967994185495243  3.4334970117304753  -5.181173345286583  54.42928019289129  11.882436195262477  4.421561390823197  7.997719753414653  38.73268286302943  4.5072368618865095  12.081171784579224  120.000000
6.1050486891385765  0.000000  0.000000  0.000000  -24.64101066752072  3.129980126786568  -6.452885191571803  54.35189343519275  11.581331574977042  4.795428742637385  8.329949938776807  35.616467064646116  6.001562699370376  12.025801080608622  120.000000
6.145213483146067  0.000000  0.000000  0.000000  -24.331140233264694  2.9112839936058172  -7.559028852092524  54.28886341310331  11.35730085764441  5.200776708531517  8.606883620624751  32.44908817251306  7.650248525506982  11.97413231061596  120.000000
6.185378277153558  0.000000  0.000000  0.000000  -24.039667990636758  2.7880231678116933  -8.482280766143793  54.24727233243276  11.214507298188884  5.622008705310131  8.816254830867896  29.265147411018877  9.449584116213007  11.93722714552966  120.000000
6.225543071161049  0.000000  0.000000  0.000000  -23.7718691322802  2.764714094291795  -9.212220335423426  54.232452366206495  11.153452948388079  6.045088560242806  8.948416010843241  26.102728733938704  11.393658763186098  11.927853543014688  120.000000
6.265707865168539  0.000000  0.000000  0.000000  -23.53565557112831  2.8382585888534493  -9.74480840912417  54.24897117111054  11.17104626184167  6.459208566070861  8.99657255583569  23.000327906872595  13.474925538439823  11.959560664782996  120.000000
6.30587265917603  0.000000  0.000000  0.000000  -23.339209215038444  3.0009473279010614  -10.08283526287286  54.30370843734358  11.259850289282902  6.854698686744552  8.958648489850807  19.993011134629555  15.682609379213435  12.04578779393322  120.000000
6.346037453183521  0.000000  0.000000  0.000000  -23.189133401540683  3.239440574813376  -10.23588456388883  54.40419658768501  11.40871952419497  7.2227980231721345  8.8354914778969  17.10799773816161  18.00382354344124  12.198393040682763  120.000000
6.386202247191012  0.000000  0.000000  0.000000  -23.089607631110304  3.53455206164124  -10.218263590843163  54.55502122348531  11.60378666518675  7.557663312551906  8.625714064412604  14.362994722470292  20.427614457231048  12.426266435006267  120.000000
6.426367041198501  0.000000  0.000000  0.000000  -23.04152250740033  3.865186890122061  -10.047294187940022  54.7580549121264  11.830411598583154  7.855970189743736  8.32503029882823  11.767947180883295  22.944451870172895  12.734287481705833  120.000000
6.466531835205992  0.000000  0.000000  0.000000  -23.043238417265307  4.21064542714934  -9.741676319309004  55.011898239444626  12.075132279806649  8.115616929232162  7.919038577366559  9.327386750099762  25.551852292127595  13.12165371060886  120.000000
6.506696629213483  0.000000  0.000000  0.000000  -23.091951014633903  4.552090460749398  -9.320141503867998  55.30735019483859  12.325996677679091  8.33704023583412  7.347818584393734  7.041390947726173  28.28864137856356  13.580197830227158  120.000000
6.546861423220974  0.000000  0.000000  0.000000  -23.184659475250662  4.87422641536952  -8.801639856728864  55.6296294091828  12.573270472050261  8.521543614183733  6.427083332054849  4.9073395394494135  31.313129235625702  14.09385634057868  120.000000
6.587026217228464  0.000000  0.000000  0.000000  -23.316256214522486  5.167658167694415  -8.207704789914068  55.96673575450945  12.809149368613758  8.666040119613095  4.548300086266856  2.922581684344246  35.20359905918769  14.639686719598878  120.000000
6.627191011235955  0.000000  0.000000  0.000000  -23.481034419247788  5.427896607204854  -7.561715554087159  56.306738276581875  13.025397765366966  8.76614901445798  -2.806581306553884  1.0894152428146349  44.44683823851163  15.190311884596293  120.000000
6.667355805243446  0.000000  0.000000  0.000000  -23.676104560458825  5.6527227038905705  -6.887006338127499  56.63560266407545  13.21270070000046  8.8187191297117  -153.02537460682572  0.6813972567400325  -163.5995084631838  15.71621118207345  120.000000
6.707520599250937  0.000000  0.000000  0.000000  -23.898842574789374  5.841852478786025  -6.205766199791461  56.94199562199353  13.362551004621139  8.821209619125426  -166.15496795698473  2.2465332147096646  -148.91431051966146  16.18980664494622  120.000000
6.747685393258427  0.000000  0.000000  0.000000  -24.143866253973933  5.9949140260788285  -5.537506166547456  57.21845231102641  13.468964031565932  8.774023976261612  -168.51008113546357  3.7170224182749627  -145.2004266098005  16.589680604461222  120.000000
6.787850187265918  0.000000  0.000000  0.000000  -24.403047174037344  6.111644582184113  -4.897839365868787  57.462091862452375  13.528652698344997  8.68215210219324  -169.59386707630537  5.082912215697681  -142.9620422008221  16.903469693133182  120.000000
6.828014981273408  0.000000  0.000000  0.000000  -24.666136549464635  6.1931264906881  -4.296533162377265  57.673764489543665  13.541055681629615  8.553722197547284  -170.29012307099427  6.348561129171058  -141.31110736955753  17.12983959131763  120.000000
6.868179775280899  0.000000  0.000000  0.000000  -24.921759999858352  6.240477897390314  -3.736737505784505  57.85695273620065  13.50987810299201  8.39728718020147  -170.81093759648715  7.515167732420319  -140.02067615745554  17.277677512817434  120.000000
6.908344569288389  0.000000  0.000000  0.000000  -25.1609990437403  6.256624045127297  -3.2163864628488037  58.01670622977059  13.441839999315704  8.22069226624599  -171.21754383456533  8.58066145301574  -139.0079319384157  17.363618305035494  120.000000
6.94850936329588  0.000000  0.000000  0.000000  -25.37887554419963  6.247398579233083  -2.7322721580452245  58.157816910821246  13.34390355173505  8.029634665545958  -171.5376777528964  9.542466962061958  -138.2226131031194  17.407238124764355  120.000000
6.988674157303371  0.000000  0.000000  0.000000  -25.572650500652593  6.218722067016036  -2.282269191145143  58.28344785326265  13.221759438003438  7.828186404094681  -171.78713524035547  10.399480199373569  -137.62738987180126  17.426439986183944  120.000000
7.028838951310862  0.000000  0.000000  0.000000  -25.74121535067887  6.175282022299636  -1.8650530133129364  58.39533135514965  13.079450480024157  7.619937261300084  -171.97571259806838  11.152087741071059  -137.19203055987202  17.43545523276967  120.000000
